<svg xmlns="http://www.w3.org/2000/svg" width="288.34515380859375" height="283.3595275878906" viewBox="-51.59917068481445 -41.957828521728516 288.34515380859375 283.3595275878906"><title>Neo4j Graph Visualization</title><desc>Created using Neo4j (http://www.neo4j.com/)</desc><g class="layer relationships"><g class="relationship" transform="translate(150.87012219802168 206.21194507902672) rotate(239.6013602682578)"><path class="outline" fill="#A5ABB6" stroke="none" d="M 25 0.5 L 32.55751252383307 0.5 L 32.55751252383307 -0.5 L 25 -0.5 Z M 78.12001252383307 0.5 L 85.67752504766614 0.5 L 85.67752504766614 3.5 L 92.67752504766614 0 L 85.67752504766614 -3.5 L 85.67752504766614 -0.5 L 78.12001252383307 -0.5 Z"/><text text-anchor="middle" pointer-events="none" font-size="8px" fill="#000000" x="55.33876252383307" y="3" transform="rotate(180 55.33876252383307 0)" font-family="sans-serif">ACTED_IN</text></g><g class="relationship" transform="translate(207.74598798974958 121.55029801289255) rotate(188.22966640334596)"><path class="outline" fill="#A5ABB6" stroke="none" d="M 25 0.5 L 37.43009066484209 0.5 L 37.43009066484209 -0.5 L 25 -0.5 Z M 73.20352816484208 0.5 L 85.63361882968418 0.5 L 85.63361882968418 3.5 L 92.63361882968418 0 L 85.63361882968418 -3.5 L 85.63361882968418 -0.5 L 73.20352816484208 -0.5 Z"/><text text-anchor="middle" pointer-events="none" font-size="8px" fill="#000000" x="55.31680941484209" y="3" transform="rotate(180 55.31680941484209 0)" font-family="sans-serif">WROTE</text></g><g class="relationship" transform="translate(182.03807194548864 30.577142841760885) rotate(500.7431112422586)"><path class="outline" fill="#A5ABB6" stroke="none" d="M 25 0.5 L 37.19031861044974 0.5 L 37.19031861044974 -0.5 L 25 -0.5 Z M 72.96375611044974 0.5 L 85.15407472089947 0.5 L 85.15407472089947 3.5 L 92.15407472089947 0 L 85.15407472089947 -3.5 L 85.15407472089947 -0.5 L 72.96375611044974 -0.5 Z"/><text text-anchor="middle" pointer-events="none" font-size="8px" fill="#000000" x="55.07703736044974" y="3" transform="rotate(180 55.07703736044974 0)" font-family="sans-serif">WROTE</text></g><g class="relationship" transform="translate(98.06357872128633 -12.957828960949643) rotate(453.2781824888857)"><path class="outline" fill="#A5ABB6" stroke="none" d="M 25 0.5 L 37.54465598590431 0.5 L 37.54465598590431 -0.5 L 25 -0.5 Z M 73.31809348590431 0.5 L 85.86274947180863 0.5 L 85.86274947180863 3.5 L 92.86274947180863 0 L 85.86274947180863 -3.5 L 85.86274947180863 -0.5 L 73.31809348590431 -0.5 Z"/><text text-anchor="middle" pointer-events="none" font-size="8px" fill="#000000" x="55.43137473590431" y="3" transform="rotate(180 55.43137473590431 0)" font-family="sans-serif">WROTE</text></g><g class="relationship" transform="translate(1.9304345314296 28.992446914189763) rotate(400.2659011429913)"><path class="outline" fill="#A5ABB6" stroke="none" d="M 25 0.5 L 31.630751005400427 0.5 L 31.630751005400427 -0.5 L 25 -0.5 Z M 78.52137600540043 0.5 L 85.15212701080085 0.5 L 85.15212701080085 3.5 L 92.15212701080085 0 L 85.15212701080085 -3.5 L 85.15212701080085 -0.5 L 78.52137600540043 -0.5 Z"/><text text-anchor="middle" pointer-events="none" font-size="8px" fill="#000000" x="55.07606350540043" y="3" font-family="sans-serif">DIRECTED</text></g><g class="relationship" transform="translate(-22.59917098003565 131.7946192889741) rotate(346.6274647173457)"><path class="outline" fill="#A5ABB6" stroke="none" d="M 25 0.5 L 32.267645680187435 0.5 L 32.267645680187435 -0.5 L 25 -0.5 Z M 77.83014568018743 0.5 L 85.09779136037487 0.5 L 85.09779136037487 3.5 L 92.09779136037487 0 L 85.09779136037487 -3.5 L 85.09779136037487 -0.5 L 77.83014568018743 -0.5 Z"/><text text-anchor="middle" pointer-events="none" font-size="8px" fill="#000000" x="55.048895680187435" y="3" font-family="sans-serif">ACTED_IN</text></g><g class="relationship" transform="translate(46.41955860502216 212.40169863714593) rotate(292.635044971275)"><path class="outline" fill="#A5ABB6" stroke="none" d="M 25 0.5 L 32.05708112962015 0.5 L 32.05708112962015 -0.5 L 25 -0.5 Z M 77.61958112962014 0.5 L 84.6766622592403 0.5 L 84.6766622592403 3.5 L 91.6766622592403 0 L 84.6766622592403 -3.5 L 84.6766622592403 -0.5 L 77.61958112962014 -0.5 Z"/><text text-anchor="middle" pointer-events="none" font-size="8px" fill="#000000" x="54.83833112962015" y="3" font-family="sans-serif">ACTED_IN</text></g></g><g class="layer nodes"><g class="node" transform="translate(91.32373095396002,104.71205743793999)"><circle class="outline" cx="0" cy="0" r="25" fill="#57C7E3" stroke="#23b3d7" stroke-width="2px"/><text text-anchor="middle" pointer-events="none" font-family="sans-serif" dy="1.5625" font-size="25" fill="#2A2C34"/><text text-anchor="middle" pointer-events="none" font-family="sans-serif" dy="1.5625" font-size="25" fill="#2A2C34"/><text text-anchor="middle" pointer-events="none" font-family="sans-serif" dy="1.5625" font-size="25" fill="#2A2C34"/><text text-anchor="middle" pointer-events="none" x="0" y="-5" font-size="10px" fill="#2A2C34" font-family="sans-serif"> Captain</text><text text-anchor="middle" pointer-events="none" x="0" y="5" font-size="10px" fill="#2A2C34" font-family="sans-serif"> America:</text><text text-anchor="middle" pointer-events="none" x="0" y="15" font-size="10px" fill="#2A2C34" font-family="sans-serif"> The Fi…</text></g><g class="node" transform="translate(150.87012219802168,206.21194507902672)"><circle class="outline" cx="0" cy="0" r="25" fill="#F79767" stroke="#f36924" stroke-width="2px"/><text text-anchor="middle" pointer-events="none" font-family="sans-serif" dy="1.5625" font-size="25" fill="#FFFFFF"/><text text-anchor="middle" pointer-events="none" font-family="sans-serif" dy="1.5625" font-size="25" fill="#FFFFFF"/><text text-anchor="middle" pointer-events="none" x="0" y="0" font-size="10px" fill="#FFFFFF" font-family="sans-serif"> Hugo</text><text text-anchor="middle" pointer-events="none" x="0" y="10" font-size="10px" fill="#FFFFFF" font-family="sans-serif"> Weaving</text></g><g class="node" transform="translate(207.74598798974958,121.55029801289255)"><circle class="outline" cx="0" cy="0" r="25" fill="#F79767" stroke="#f36924" stroke-width="2px"/><text text-anchor="middle" pointer-events="none" font-family="sans-serif" dy="1.5625" font-size="25" fill="#FFFFFF"/><text text-anchor="middle" pointer-events="none" font-family="sans-serif" dy="1.5625" font-size="25" fill="#FFFFFF"/><text text-anchor="middle" pointer-events="none" x="0" y="0" font-size="10px" fill="#FFFFFF" font-family="sans-serif"> Stephen</text><text text-anchor="middle" pointer-events="none" x="0" y="10" font-size="10px" fill="#FFFFFF" font-family="sans-serif"> McFeely</text></g><g class="node" transform="translate(182.03807194548864,30.577142841760885)"><circle class="outline" cx="0" cy="0" r="25" fill="#F79767" stroke="#f36924" stroke-width="2px"/><text text-anchor="middle" pointer-events="none" font-family="sans-serif" dy="1.5625" font-size="25" fill="#FFFFFF"/><text text-anchor="middle" pointer-events="none" font-family="sans-serif" dy="1.5625" font-size="25" fill="#FFFFFF"/><text text-anchor="middle" pointer-events="none" x="0" y="0" font-size="10px" fill="#FFFFFF" font-family="sans-serif"> Joe</text><text text-anchor="middle" pointer-events="none" x="0" y="10" font-size="10px" fill="#FFFFFF" font-family="sans-serif"> Simon</text></g><g class="node" transform="translate(98.06357872128633,-12.957828960949643)"><circle class="outline" cx="0" cy="0" r="25" fill="#F79767" stroke="#f36924" stroke-width="2px"/><text text-anchor="middle" pointer-events="none" font-family="sans-serif" dy="1.5625" font-size="25" fill="#FFFFFF"/><text text-anchor="middle" pointer-events="none" x="0" y="5" font-size="10px" fill="#FFFFFF" font-family="sans-serif"> Christop…</text></g><g class="node" transform="translate(1.9304345314296,28.992446914189763)"><circle class="outline" cx="0" cy="0" r="25" fill="#F79767" stroke="#f36924" stroke-width="2px"/><text text-anchor="middle" pointer-events="none" font-family="sans-serif" dy="1.5625" font-size="25" fill="#FFFFFF"/><text text-anchor="middle" pointer-events="none" font-family="sans-serif" dy="1.5625" font-size="25" fill="#FFFFFF"/><text text-anchor="middle" pointer-events="none" x="0" y="0" font-size="10px" fill="#FFFFFF" font-family="sans-serif"> Joe</text><text text-anchor="middle" pointer-events="none" x="0" y="10" font-size="10px" fill="#FFFFFF" font-family="sans-serif"> Johnston</text></g><g class="node" transform="translate(-22.59917098003565,131.7946192889741)"><circle class="outline" cx="0" cy="0" r="25" fill="#F79767" stroke="#f36924" stroke-width="2px"/><text text-anchor="middle" pointer-events="none" font-family="sans-serif" dy="1.5625" font-size="25" fill="#FFFFFF"/><text text-anchor="middle" pointer-events="none" font-family="sans-serif" dy="1.5625" font-size="25" fill="#FFFFFF"/><text text-anchor="middle" pointer-events="none" x="0" y="0" font-size="10px" fill="#FFFFFF" font-family="sans-serif"> Chris</text><text text-anchor="middle" pointer-events="none" x="0" y="10" font-size="10px" fill="#FFFFFF" font-family="sans-serif"> Evans</text></g><g class="node" transform="translate(46.41955860502216,212.40169863714593)"><circle class="outline" cx="0" cy="0" r="25" fill="#F79767" stroke="#f36924" stroke-width="2px"/><text text-anchor="middle" pointer-events="none" font-family="sans-serif" dy="1.5625" font-size="25" fill="#FFFFFF"/><text text-anchor="middle" pointer-events="none" font-family="sans-serif" dy="1.5625" font-size="25" fill="#FFFFFF"/><text text-anchor="middle" pointer-events="none" font-family="sans-serif" dy="1.5625" font-size="25" fill="#FFFFFF"/><text text-anchor="middle" pointer-events="none" x="0" y="-5" font-size="10px" fill="#FFFFFF" font-family="sans-serif"> Samuel</text><text text-anchor="middle" pointer-events="none" x="0" y="5" font-size="10px" fill="#FFFFFF" font-family="sans-serif"> L.</text><text text-anchor="middle" pointer-events="none" x="0" y="15" font-size="10px" fill="#FFFFFF" font-family="sans-serif"> Jackson</text></g></g></svg>