<svg xmlns="http://www.w3.org/2000/svg" width="344.8216552734375" height="410.2906494140625" viewBox="-69.09087371826172 -97.0267105102539 344.8216552734375 410.2906494140625"><title>Neo4j Graph Visualization</title><desc>Created using Neo4j (http://www.neo4j.com/)</desc><g class="layer relationships"><g class="relationship" transform="translate(41.87446369143179 -68.02671234906572) rotate(363.12004077970613)"><path class="outline" fill="#A5ABB6" stroke="none" d="M 24.018736134675446,-6.953439040707552 L 24.277555179777966,-5.987513214418485 A 111.56980656889895 111.56980656889895 0 0 1 40.49255641226286,-9.068401403310844 L 40.37907239758787,-10.061941225569242 A 112.56980656889895 112.56980656889895 0 0 0 24.018736134675446,-6.953439040707552 Z M 62.45081482777385,-10.404602330657085 L 62.36822723938823,-9.408018520712005 A 111.56980656889895 111.56980656889895 0 0 1 78.67105179150754,-6.831965604959084 L 77.98492245424272,-3.9114816497652636 L 85.59986924317059,-5.7177444772068124 L 79.58589090786062,-10.725944211884178 L 78.8997615705958,-7.805460256690358 A 112.56980656889895 112.56980656889895 0 0 0 62.45081482777385,-10.404602330657085"/><text text-anchor="middle" pointer-events="none" font-size="8px" fill="#000000" x="51.41428555639154" y="-7.2756589901627535" font-family="sans-serif">road</text></g><g class="relationship" transform="translate(151.64873856961768 -62.04304020180531) rotate(394.16193598992356)"><path class="outline" fill="#A5ABB6" stroke="none" d="M 21.40063509461097,-12.933012701892217 L 21.90063509461097,-12.06698729810778 A 67.63562284889011 67.63562284889011 0 0 1 44.22120793406147,-20.144083637263776 L 44.05122001792027,-21.12952978412619 A 68.63562284889011 68.63562284889011 0 0 0 21.40063509461097,-12.933012701892217 Z M 63.45563650180127,-21.69094736062779 L 63.3429080138588,-20.69732153165282 A 67.63562284889011 67.63562284889011 0 0 1 86.0931332475612,-13.924234423912853 L 84.74585416078317,-11.243779413596402 L 92.57207478609592,-11.227325723150207 L 87.88950536326523,-17.498174437668123 L 86.5422262764872,-14.817719427351673 A 68.63562284889011 68.63562284889011 0 0 0 63.45563650180127,-21.69094736062779"/><text text-anchor="middle" pointer-events="none" font-size="8px" fill="#000000" x="53.74793965169513" y="-18.599942712790067" font-family="sans-serif">trek</text></g><g class="relationship" transform="translate(246.73079352009634 2.482358221084383) rotate(479.40054949205904)"><path class="outline" fill="#A5ABB6" stroke="none" d="M 21.40063509461097,12.933012701892217 L 21.90063509461097,12.06698729810778 A 67.08600386845552 67.08600386845552 0 0 0 42.64904976258617,19.823419734070853 L 42.45833058826569,20.805064372698553 A 68.08600386845552 68.08600386845552 0 0 1 21.40063509461097,12.933012701892217 Z M 64.52570256529899,21.446355594450864 L 64.39231148606915,20.455292115161114 A 67.08600386845552 67.08600386845552 0 0 0 85.55614373808118,13.916855010118146 L 84.20955108210984,11.23605508866111 L 92.03577566414282,11.221605466427851 L 87.35160061270963,17.491254905394193 L 86.0050079567383,14.810454983937158 A 68.08600386845552 68.08600386845552 0 0 1 64.52570256529899,21.446355594450864"/><text text-anchor="middle" pointer-events="none" font-size="8px" fill="#000000" x="53.48037557099944" y="24.5262868137019" transform="rotate(180 53.48037557099944 21.5262868137019)" font-family="sans-serif">road</text></g><g class="relationship" transform="translate(190.58234060062068 102.12757458293592) rotate(461.16017515064374)"><path class="outline" fill="#A5ABB6" stroke="none" d="M 25 0.5 L 47.44869558111605 0.5 L 47.44869558111605 -0.5 L 25 -0.5 Z M 66.78463308111606 0.5 L 89.2333286622321 0.5 L 89.2333286622321 3.5 L 96.2333286622321 0 L 89.2333286622321 -3.5 L 89.2333286622321 -0.5 L 66.78463308111606 -0.5 Z"/><text text-anchor="middle" pointer-events="none" font-size="8px" fill="#000000" x="57.11666433111605" y="3" transform="rotate(180 57.11666433111605 0)" font-family="sans-serif">trek</text></g><g class="relationship" transform="translate(246.73079352009634 2.482358221084383) rotate(479.40054949205904)"><path class="outline" fill="#A5ABB6" stroke="none" d="M 25 0.5 L 30.455465629809048 0.5 L 30.455465629809048 -0.5 L 25 -0.5 Z M 76.92030937980905 0.5 L 82.3757750096181 0.5 L 82.3757750096181 3.5 L 89.3757750096181 0 L 82.3757750096181 -3.5 L 82.3757750096181 -0.5 L 76.92030937980905 -0.5 Z"/><text text-anchor="middle" pointer-events="none" font-size="8px" fill="#000000" x="53.68788750480905" y="3" transform="rotate(180 53.68788750480905 0)" font-family="sans-serif">twowheeler</text></g><g class="relationship" transform="translate(246.73079352009634 2.482358221084383) rotate(479.40054949205904)"><path class="outline" fill="#A5ABB6" stroke="none" d="M 21.40063509461097,-12.933012701892217 L 21.90063509461097,-12.06698729810778 A 67.08600386845552 67.08600386845552 0 0 1 43.95508851332513,-20.063774532280277 L 43.783837464625904,-21.049001956949027 A 68.08600386845552 68.08600386845552 0 0 0 21.40063509461097,-12.933012701892217 Z M 63.18826664590933,-21.612906444987857 L 63.07451889781071,-20.619396782325992 A 67.08600386845552 67.08600386845552 0 0 1 85.55614373808118,-13.916855010118146 L 84.20955108210984,-11.23605508866111 L 92.03577566414282,-11.221605466427851 L 87.35160061270963,-17.491254905394193 L 86.0050079567383,-14.810454983937158 A 68.08600386845552 68.08600386845552 0 0 0 63.18826664590933,-21.612906444987857"/><text text-anchor="middle" pointer-events="none" font-size="8px" fill="#000000" x="53.48037557099943" y="-18.5262868137019" transform="rotate(180 53.48037557099943 -21.5262868137019)" font-family="sans-serif">trek</text></g><g class="relationship" transform="translate(151.64873856961768 -62.04304020180531) rotate(394.16193598992356)"><path class="outline" fill="#A5ABB6" stroke="none" d="M 25 0.5 L 30.722178061033183 0.5 L 30.722178061033183 -0.5 L 25 -0.5 Z M 77.18702181103319 0.5 L 82.90919987206637 0.5 L 82.90919987206637 3.5 L 89.90919987206637 0 L 82.90919987206637 -3.5 L 82.90919987206637 -0.5 L 77.18702181103319 -0.5 Z"/><text text-anchor="middle" pointer-events="none" font-size="8px" fill="#000000" x="53.95459993603318" y="3" font-family="sans-serif">twowheeler</text></g><g class="relationship" transform="translate(151.64873856961768 -62.04304020180531) rotate(394.16193598992356)"><path class="outline" fill="#A5ABB6" stroke="none" d="M 21.40063509461097,12.933012701892217 L 21.90063509461097,12.06698729810778 A 67.63562284889011 67.63562284889011 0 0 0 42.914764203907694,19.905493179411934 L 42.72546037589751,20.887411740546554 A 68.63562284889011 68.63562284889011 0 0 1 21.40063509461097,12.933012701892217 Z M 64.79317687182339,21.525885148100883 L 64.66096083041371,20.534664224999503 A 67.63562284889011 67.63562284889011 0 0 0 86.0931332475612,13.924234423912853 L 84.74585416078317,11.243779413596402 L 92.57207478609592,11.227325723150207 L 87.88950536326523,17.498174437668123 L 86.5422262764872,14.817719427351673 A 68.63562284889011 68.63562284889011 0 0 1 64.79317687182339,21.525885148100883"/><text text-anchor="middle" pointer-events="none" font-size="8px" fill="#000000" x="53.74793965169513" y="24.599942712790067" font-family="sans-serif">road</text></g><g class="relationship" transform="translate(41.87446369143179 -68.02671234906572) rotate(363.12004077970613)"><path class="outline" fill="#A5ABB6" stroke="none" d="M 24.018736134675446,6.953439040707552 L 24.277555179777966,5.987513214418485 A 111.56980656889895 111.56980656889895 0 0 0 41.81674436437986,9.211650831772658 L 41.71512904422752,10.206474598432024 A 112.56980656889895 112.56980656889895 0 0 1 24.018736134675446,6.953439040707552 Z M 61.11091541904855,10.507591812637742 L 61.04023066188887,9.510093108325165 A 111.56980656889895 111.56980656889895 0 0 0 78.67105179150754,6.831965604959084 L 77.98492245424272,3.9114816497652636 L 85.59986924317059,5.7177444772068124 L 79.58589090786062,10.725944211884178 L 78.8997615705958,7.805460256690358 A 112.56980656889895 112.56980656889895 0 0 1 61.11091541904855,10.507591812637742"/><text text-anchor="middle" pointer-events="none" font-size="8px" fill="#000000" x="51.41428555639154" y="13.275658990162754" font-family="sans-serif">trek</text></g><g class="relationship" transform="translate(41.87446369143179 -68.02671234906572) rotate(426.042966909523)"><path class="outline" fill="#A5ABB6" stroke="none" d="M 21.40063509461097,12.933012701892217 L 21.90063509461097,12.06698729810778 A 62.275107000655595 62.275107000655595 0 0 0 21.993908367128846,12.120731212284888 L 21.495406128867206,12.987619624047404 A 63.275107000655595 63.275107000655595 0 0 1 21.40063509461097,12.933012701892217 Z M 81.20991130284884,14.792847047825383 L 80.76468530413788,13.897428815895836 A 62.275107000655595 62.275107000655595 0 0 0 80.86103473960263,13.849417380144601 L 79.52071526920633,11.165475555649035 L 87.346952241825,11.169328919969164 L 82.6481273667977,17.42800647947202 L 81.3078078964014,14.744064654976455 A 63.275107000655595 63.275107000655595 0 0 1 81.20991130284884,14.792847047825383"/><text text-anchor="middle" pointer-events="none" font-size="8px" fill="#000000" x="51.14130280365056" y="23.88160381193481" font-family="sans-serif">PublicTransport</text></g><g class="relationship" transform="translate(86.4236406850984 32.23465920549168) rotate(504.7444206339831)"><path class="outline" fill="#A5ABB6" stroke="none" d="M 24.018736134675446,-6.953439040707552 L 24.277555179777966,-5.987513214418485 A 139.92919102078915 139.92919102078915 0 0 1 35.54267883986816,-8.512950054539488 L 35.36436568190692,-9.496923843671027 A 140.92919102078915 140.92919102078915 0 0 0 24.018736134675446,-6.953439040707552 Z M 81.77778641280183,-10.13900975396092 L 81.62676098310277,-9.150479876018807 A 139.92919102078915 139.92919102078915 0 0 1 92.95743430857785,-6.93763458049271 L 92.26143501157608,-4.019487055336885 L 99.88244508344172,-5.79999414168126 L 93.88543337124685,-10.828497947367143 L 93.18943407424509,-7.910350422211319 A 140.92919102078915 140.92919102078915 0 0 0 81.77778641280183,-10.13900975396092"/><text text-anchor="middle" pointer-events="none" font-size="8px" fill="#000000" x="58.5513752135471" y="-8.242048956037024" transform="rotate(180 58.5513752135471 -11.242048956037024)" font-family="sans-serif">twowheeler</text></g><g class="relationship" transform="translate(-14.996538327365258 103.92616515281898) rotate(407.9102346403057)"><path class="outline" fill="#A5ABB6" stroke="none" d="M 24.018736134675446,-6.953439040707552 L 24.277555179777966,-5.987513214418485 A 111.9296744322201 111.9296744322201 0 0 1 41.90673090037554,-9.225458243922532 L 41.80541410666457,-10.220312458022335 A 112.9296744322201 112.9296744322201 0 0 0 24.018736134675446,-6.953439040707552 Z M 61.20108577119334,-10.520963287714551 L 61.130652564188864,-9.523446789930645 A 111.9296744322201 111.9296744322201 0 0 1 78.8517166559548,-6.833463136203176 L 78.16544743867502,-3.913012047515987 L 85.7804807324382,-5.71891014399821 L 79.76674227899451,-10.72739792111943 L 79.08047306171473,-7.8069468324322395 A 112.9296744322201 112.9296744322201 0 0 0 61.20108577119334,-10.520963287714551"/><text text-anchor="middle" pointer-events="none" font-size="8px" fill="#000000" x="51.504532148680816" y="-7.287919593402293" font-family="sans-serif">trek</text></g><g class="relationship" transform="translate(58.81461800235844 185.6439301437202) rotate(378.11226334779303)"><path class="outline" fill="#A5ABB6" stroke="none" d="M 24.018736134675446,6.953439040707552 L 24.277555179777966,5.987513214418485 A 119.56673489744553 119.56673489744553 0 0 0 43.818927713153755,9.516490472687693 L 43.723543527672824,10.511931006903637 A 120.56673489744553 120.56673489744553 0 0 1 24.018736134675446,6.953439040707552 Z M 63.116843382811744,10.803003453986634 L 63.05137640257408,9.805148717815797 A 119.56673489744553 119.56673489744553 0 0 0 82.6898552446251,6.864218635704258 L 82.00071327040737,3.944444099995841 L 89.61751949031435,5.742849785147653 L 83.60871121024871,10.757251349982148 L 82.919569236031,7.837476814273732 A 120.56673489744553 120.56673489744553 0 0 1 63.116843382811744,10.803003453986634"/><text text-anchor="middle" pointer-events="none" font-size="8px" fill="#000000" x="53.42183449447081" y="13.548129619991869" font-family="sans-serif">trek</text></g><g class="relationship" transform="translate(58.81461800235844 185.6439301437202) rotate(378.11226334779303)"><path class="outline" fill="#A5ABB6" stroke="none" d="M 24.018736134675446,-6.953439040707552 L 24.277555179777966,-5.987513214418485 A 119.56673489744553 119.56673489744553 0 0 1 30.473838969549416,-7.472043297888362 L 30.266842731142138,-8.450385036385313 A 120.56673489744553 120.56673489744553 0 0 0 24.018736134675446,-6.953439040707552 Z M 76.62935203854511,-9.14623613639489 L 76.45181012597037,-8.162122896325783 A 119.56673489744553 119.56673489744553 0 0 1 82.6898552446251,-6.864218635704258 L 82.00071327040737,-3.944444099995841 L 89.61751949031435,-5.742849785147653 L 83.60871121024871,-10.757251349982148 L 82.919569236031,-7.837476814273732 A 120.56673489744553 120.56673489744553 0 0 0 76.62935203854511,-9.14623613639489"/><text text-anchor="middle" pointer-events="none" font-size="8px" fill="#000000" x="53.421834494470794" y="-7.548129619991869" font-family="sans-serif">twowheeler</text></g><g class="relationship" transform="translate(-14.996538327365258 103.92616515281898) rotate(407.9102346403057)"><path class="outline" fill="#A5ABB6" stroke="none" d="M 24.018736134675446,6.953439040707552 L 24.277555179777966,5.987513214418485 A 111.9296744322201 111.9296744322201 0 0 0 28.58709523069964,7.0511291519678 L 28.366778397568897,8.02655751583633 A 112.9296744322201 112.9296744322201 0 0 1 24.018736134675446,6.953439040707552 Z M 74.70125911652627,8.744784773569776 L 74.51128095011933,7.7629964581531254 A 111.9296744322201 111.9296744322201 0 0 0 78.8517166559548,6.833463136203176 L 78.16544743867502,3.913012047515987 L 85.7804807324382,5.71891014399821 L 79.76674227899451,10.72739792111943 L 79.08047306171473,7.8069468324322395 A 112.9296744322201 112.9296744322201 0 0 1 74.70125911652627,8.744784773569776"/><text text-anchor="middle" pointer-events="none" font-size="8px" fill="#000000" x="51.50453214868082" y="13.287919593402293" font-family="sans-serif">twowheeler</text></g><g class="relationship" transform="translate(86.4236406850984 32.23465920549168) rotate(393.8625321016748)"><path class="outline" fill="#A5ABB6" stroke="none" d="M 25 0.5 L 49.54976077692564 0.5 L 49.54976077692564 -0.5 L 25 -0.5 Z M 68.88569827692564 0.5 L 93.43545905385128 0.5 L 93.43545905385128 3.5 L 100.43545905385128 0 L 93.43545905385128 -3.5 L 93.43545905385128 -0.5 L 68.88569827692564 -0.5 Z"/><text text-anchor="middle" pointer-events="none" font-size="8px" fill="#000000" x="59.21772952692564" y="3" font-family="sans-serif">trek</text></g><g class="relationship" transform="translate(86.4236406850984 32.23465920549168) rotate(504.7444206339831)"><path class="outline" fill="#A5ABB6" stroke="none" d="M 24.018736134675446,6.953439040707552 L 24.277555179777966,5.987513214418485 A 139.92919102078915 139.92919102078915 0 0 0 48.93786037035663,10.27749155771167 L 48.85527549777152,11.274075592713274 A 140.92919102078915 140.92919102078915 0 0 1 24.018736134675446,6.953439040707552 Z M 68.24287839124847,11.542284797209845 L 68.18789344772205,10.543797613523736 A 139.92919102078915 139.92919102078915 0 0 0 92.95743430857785,6.93763458049271 L 92.26143501157608,4.019487055336885 L 99.88244508344172,5.79999414168126 L 93.88543337124685,10.828497947367143 L 93.18943407424509,7.910350422211319 A 140.92919102078915 140.92919102078915 0 0 1 68.24287839124847,11.542284797209845"/><text text-anchor="middle" pointer-events="none" font-size="8px" fill="#000000" x="58.551375213547104" y="14.242048956037024" transform="rotate(180 58.551375213547104 11.242048956037024)" font-family="sans-serif">trek</text></g><g class="relationship" transform="translate(41.87446369143179 -68.02671234906572) rotate(426.042966909523)"><path class="outline" fill="#A5ABB6" stroke="none" d="M 25 0.5 L 41.688598306310695 0.5 L 41.688598306310695 -0.5 L 25 -0.5 Z M 61.024535806310695 0.5 L 77.71313411262139 0.5 L 77.71313411262139 3.5 L 84.71313411262139 0 L 77.71313411262139 -3.5 L 77.71313411262139 -0.5 L 61.024535806310695 -0.5 Z"/><text text-anchor="middle" pointer-events="none" font-size="8px" fill="#000000" x="51.356567056310695" y="3" font-family="sans-serif">trek</text></g><g class="relationship" transform="translate(41.87446369143179 -68.02671234906572) rotate(426.042966909523)"><path class="outline" fill="#A5ABB6" stroke="none" d="M 21.40063509461097,-12.933012701892217 L 21.90063509461097,-12.06698729810778 A 62.275107000655595 62.275107000655595 0 0 1 40.32786779066101,-19.09938734268313 L 40.123768248862646,-20.078337482903606 A 63.275107000655595 63.275107000655595 0 0 0 21.40063509461097,-12.933012701892217 Z M 62.18724033715931,-20.745337649136367 L 62.042648693211156,-19.755846236086022 A 62.275107000655595 62.275107000655595 0 0 1 80.86103473960263,-13.849417380144601 L 79.52071526920633,-11.165475555649035 L 87.346952241825,-11.169328919969164 L 82.6481273667977,-17.42800647947202 L 81.3078078964014,-14.744064654976455 A 63.275107000655595 63.275107000655595 0 0 0 62.18724033715931,-20.745337649136367"/><text text-anchor="middle" pointer-events="none" font-size="8px" fill="#000000" x="51.14130280365057" y="-17.88160381193481" font-family="sans-serif">road</text></g><g class="relationship" transform="translate(86.4236406850984 32.23465920549168) rotate(304.67704082072686)"><path class="outline" fill="#A5ABB6" stroke="none" d="M 25 0.5 L 44.15261655662821 0.5 L 44.15261655662821 -0.5 L 25 -0.5 Z M 63.48855405662821 0.5 L 82.64117061325642 0.5 L 82.64117061325642 3.5 L 89.64117061325642 0 L 82.64117061325642 -3.5 L 82.64117061325642 -0.5 L 63.48855405662821 -0.5 Z"/><text text-anchor="middle" pointer-events="none" font-size="8px" fill="#000000" x="53.82058530662821" y="3" font-family="sans-serif">trek</text></g><g class="relationship" transform="translate(-14.996538327365258 103.92616515281898) rotate(462.3379189517629)"><path class="outline" fill="#A5ABB6" stroke="none" d="M 24.018736134675446,-6.953439040707552 L 24.277555179777966,-5.987513214418485 A 126.51301979201703 126.51301979201703 0 0 1 32.197375831194734,-7.8389590002163345 L 32.00115762088721,-8.819519255347913 A 127.51301979201703 127.51301979201703 0 0 0 24.018736134675446,-6.953439040707552 Z M 78.38429646969257,-9.496109559625452 L 78.21676250061904,-8.510243255704651 A 126.51301979201703 126.51301979201703 0 0 1 86.18721605194433,-6.890588713982203 L 85.49561098367924,-3.9713966289096843 L 93.11393176182439,-5.763375568875746 L 87.10935614296444,-10.782844827412228 L 86.41775107469935,-7.863652742339709 A 127.51301979201703 127.51301979201703 0 0 0 78.38429646969257,-9.496109559625452"/><text text-anchor="middle" pointer-events="none" font-size="8px" fill="#000000" x="55.168993801658196" y="-7.78482905393038" transform="rotate(180 55.168993801658196 -10.78482905393038)" font-family="sans-serif">twowheeler</text></g><g class="relationship" transform="translate(-40.09087412805283 218.65433509263124) rotate(341.5432046698845)"><path class="outline" fill="#A5ABB6" stroke="none" d="M 21.40063509461097,12.933012701892217 L 21.90063509461097,12.06698729810778 A 56.64088452176881 56.64088452176881 0 0 0 38.91790448579489,18.516146732968174 L 38.71834593431507,19.49603263680151 A 57.64088452176881 57.64088452176881 0 0 1 21.40063509461097,12.933012701892217 Z M 58.12078925722355,20.111531124441697 L 57.98373875969441,19.120967062340206 A 56.64088452176881 56.64088452176881 0 0 0 75.37555110086836,13.76335766655907 L 74.0432374925398,11.075432732885785 L 81.86942821416079,11.102613402737983 L 77.15196924530643,17.347257578123454 L 75.81965563697787,14.659332644450167 A 57.64088452176881 57.64088452176881 0 0 1 58.12078925722355,20.111531124441697"/><text text-anchor="middle" pointer-events="none" font-size="8px" fill="#000000" x="48.40932383769581" y="23.126697272658994" font-family="sans-serif">trek</text></g><g class="relationship" transform="translate(-40.09087412805283 218.65433509263124) rotate(341.5432046698845)"><path class="outline" fill="#A5ABB6" stroke="none" d="M 25 0.5 L 25.401979455719086 0.5 L 25.401979455719086 -0.5 L 25 -0.5 Z M 71.86682320571909 0.5 L 72.26880266143817 0.5 L 72.26880266143817 3.5 L 79.26880266143817 0 L 72.26880266143817 -3.5 L 72.26880266143817 -0.5 L 71.86682320571909 -0.5 Z"/><text text-anchor="middle" pointer-events="none" font-size="8px" fill="#000000" x="48.634401330719086" y="3" font-family="sans-serif">twowheeler</text></g><g class="relationship" transform="translate(-40.09087412805283 218.65433509263124) rotate(341.5432046698845)"><path class="outline" fill="#A5ABB6" stroke="none" d="M 21.40063509461097,-12.933012701892217 L 21.90063509461097,-12.06698729810778 A 56.64088452176881 56.64088452176881 0 0 1 37.62161264187179,-18.23630703479376 L 37.399167939250994,-19.21125234314492 A 57.64088452176881 57.64088452176881 0 0 0 21.40063509461097,-12.933012701892217 Z M 59.45536471341123,-19.910935137299063 L 59.29516093731497,-18.923851174241975 A 56.64088452176881 56.64088452176881 0 0 1 75.37555110086836,-13.76335766655907 L 74.0432374925398,-11.075432732885785 L 81.86942821416079,-11.102613402737983 L 77.15196924530643,-17.347257578123454 L 75.81965563697787,-14.659332644450167 A 57.64088452176881 57.64088452176881 0 0 0 59.45536471341123,-19.910935137299063"/><text text-anchor="middle" pointer-events="none" font-size="8px" fill="#000000" x="48.40932383769578" y="-17.126697272658994" font-family="sans-serif">road</text></g><g class="relationship" transform="translate(-14.996538327365258 103.92616515281898) rotate(462.3379189517629)"><path class="outline" fill="#A5ABB6" stroke="none" d="M 24.018736134675446,6.953439040707552 L 24.277555179777966,5.987513214418485 A 126.51301979201703 126.51301979201703 0 0 0 45.56203965167229,9.778272864664075 L 45.47146008505891,10.774162086471478 A 127.51301979201703 127.51301979201703 0 0 1 24.018736134675446,6.953439040707552 Z M 64.86271264097626,11.057022060866416 L 64.80121948131003,10.058914555978163 A 126.51301979201703 126.51301979201703 0 0 0 86.18721605194433,6.890588713982203 L 85.49561098367924,3.9713966289096843 L 93.11393176182439,5.763375568875746 L 87.10935614296444,10.782844827412228 L 86.41775107469935,7.863652742339709 A 127.51301979201703 127.51301979201703 0 0 1 64.86271264097626,11.057022060866416"/><text text-anchor="middle" pointer-events="none" font-size="8px" fill="#000000" x="55.16899380165819" y="13.78482905393038" transform="rotate(180 55.16899380165819 10.78482905393038)" font-family="sans-serif">trek</text></g><g class="relationship" transform="translate(-40.09087412805283 218.65433509263124) rotate(392.22038156024496)"><path class="outline" fill="#A5ABB6" stroke="none" d="M 25 0.5 L 48.35905792922546 0.5 L 48.35905792922546 -0.5 L 25 -0.5 Z M 67.69499542922546 0.5 L 91.05405335845091 0.5 L 91.05405335845091 3.5 L 98.05405335845091 0 L 91.05405335845091 -3.5 L 91.05405335845091 -0.5 L 67.69499542922546 -0.5 Z"/><text text-anchor="middle" pointer-events="none" font-size="8px" fill="#000000" x="58.02702667922546" y="3" font-family="sans-serif">trek</text></g><g class="relationship" transform="translate(64.01329247059844 284.26395744137477) rotate(328.4946071344502)"><path class="outline" fill="#A5ABB6" stroke="none" d="M 25 0.5 L 47.2971549264667 0.5 L 47.2971549264667 -0.5 L 25 -0.5 Z M 66.6330924264667 0.5 L 88.9302473529334 0.5 L 88.9302473529334 3.5 L 95.9302473529334 0 L 88.9302473529334 -3.5 L 88.9302473529334 -0.5 L 66.6330924264667 -0.5 Z"/><text text-anchor="middle" pointer-events="none" font-size="8px" fill="#000000" x="56.9651236764667" y="3" font-family="sans-serif">trek</text></g></g><g class="layer nodes"><g class="node" transform="translate(41.87446369143179,-68.02671234906572)"><circle class="outline" cx="0" cy="0" r="25" fill="#F16667" stroke="#eb2728" stroke-width="2px"/><text text-anchor="middle" pointer-events="none" font-family="sans-serif" dy="1.5625" font-size="25" fill="#FFFFFF"/><text text-anchor="middle" pointer-events="none" x="0" y="5" font-size="10px" fill="#FFFFFF" font-family="sans-serif"> Darjeeling</text></g><g class="node" transform="translate(167.11733073118555,221.06837200060963)"><circle class="outline" cx="0" cy="0" r="25" fill="#D9C8AE" stroke="#c0a378" stroke-width="2px"/><text text-anchor="middle" pointer-events="none" font-family="sans-serif" dy="1.5625" font-size="25" fill="#2A2C34"/><text text-anchor="middle" pointer-events="none" x="0" y="5" font-size="10px" fill="#2A2C34" font-family="sans-serif"> Sandak…</text></g><g class="node" transform="translate(151.64873856961768,-62.04304020180531)"><circle class="outline" cx="0" cy="0" r="25" fill="#8DCC93" stroke="#5db665" stroke-width="2px"/><text text-anchor="middle" pointer-events="none" font-family="sans-serif" dy="1.5625" font-size="25" fill="#2A2C34"/><text text-anchor="middle" pointer-events="none" x="0" y="5" font-size="10px" fill="#2A2C34" font-family="sans-serif"> Tumbling</text></g><g class="node" transform="translate(246.73079352009634,2.482358221084383)"><circle class="outline" cx="0" cy="0" r="25" fill="#8DCC93" stroke="#5db665" stroke-width="2px"/><text text-anchor="middle" pointer-events="none" font-family="sans-serif" dy="1.5625" font-size="25" fill="#2A2C34"/><text text-anchor="middle" pointer-events="none" x="0" y="5" font-size="10px" fill="#2A2C34" font-family="sans-serif"> Gairibus</text></g><g class="node" transform="translate(190.58234060062068,102.12757458293592)"><circle class="outline" cx="0" cy="0" r="25" fill="#8DCC93" stroke="#5db665" stroke-width="2px"/><text text-anchor="middle" pointer-events="none" font-family="sans-serif" dy="1.5625" font-size="25" fill="#2A2C34"/><text text-anchor="middle" pointer-events="none" x="0" y="5" font-size="10px" fill="#2A2C34" font-family="sans-serif"> BhikeBh…</text></g><g class="node" transform="translate(86.4236406850984,32.23465920549168)"><circle class="outline" cx="0" cy="0" r="25" fill="#F16667" stroke="#eb2728" stroke-width="2px"/><text text-anchor="middle" pointer-events="none" font-family="sans-serif" dy="1.5625" font-size="25" fill="#FFFFFF"/><text text-anchor="middle" pointer-events="none" x="0" y="5" font-size="10px" fill="#FFFFFF" font-family="sans-serif"> Rimbik</text></g><g class="node" transform="translate(-14.996538327365258,103.92616515281898)"><circle class="outline" cx="0" cy="0" r="25" fill="#8DCC93" stroke="#5db665" stroke-width="2px"/><text text-anchor="middle" pointer-events="none" font-family="sans-serif" dy="1.5625" font-size="25" fill="#2A2C34"/><text text-anchor="middle" pointer-events="none" x="0" y="5" font-size="10px" fill="#2A2C34" font-family="sans-serif"> Sirikhola</text></g><g class="node" transform="translate(58.81461800235844,185.6439301437202)"><circle class="outline" cx="0" cy="0" r="25" fill="#8DCC93" stroke="#5db665" stroke-width="2px"/><text text-anchor="middle" pointer-events="none" font-family="sans-serif" dy="1.5625" font-size="25" fill="#2A2C34"/><text text-anchor="middle" pointer-events="none" x="0" y="5" font-size="10px" fill="#2A2C34" font-family="sans-serif"> Gurdum</text></g><g class="node" transform="translate(-40.09087412805283,218.65433509263124)"><circle class="outline" cx="0" cy="0" r="25" fill="#8DCC93" stroke="#5db665" stroke-width="2px"/><text text-anchor="middle" pointer-events="none" font-family="sans-serif" dy="1.5625" font-size="25" fill="#2A2C34"/><text text-anchor="middle" pointer-events="none" x="0" y="5" font-size="10px" fill="#2A2C34" font-family="sans-serif"> Rammam</text></g><g class="node" transform="translate(64.01329247059844,284.26395744137477)"><circle class="outline" cx="0" cy="0" r="25" fill="#D9C8AE" stroke="#c0a378" stroke-width="2px"/><text text-anchor="middle" pointer-events="none" font-family="sans-serif" dy="1.5625" font-size="25" fill="#2A2C34"/><text text-anchor="middle" pointer-events="none" x="0" y="5" font-size="10px" fill="#2A2C34" font-family="sans-serif"> Sabargr…</text></g></g></svg>