<svg xmlns="http://www.w3.org/2000/svg" width="186.34449768066406" height="253.16973876953125" viewBox="-4.4041748046875 -29.82256507873535 186.34449768066406 253.16973876953125"><title>Neo4j Graph Visualization</title><desc>Created using Neo4j (http://www.neo4j.com/)</desc><g class="layer relationships"><g class="relationship" transform="translate(152.94032182037506 -0.8225652009570599) rotate(522.965331505726)"><path class="outline" fill="#A5ABB6" stroke="none" d="M 21.40063509461097,12.933012701892217 L 21.90063509461097,12.06698729810778 A 65.76249718405184 65.76249718405184 0 0 0 43.31465389234002,19.869983709846494 L 43.14028049891179,20.854663312389533 A 66.76249718405184 66.76249718405184 0 0 1 21.40063509461097,12.933012701892217 Z M 62.54470461466585,21.424643806490508 L 62.428429441395615,20.431426768738447 A 65.76249718405184 65.76249718405184 0 0 0 84.26353853929636,13.898818962213399 L 82.91862360532656,11.217176961426382 L 90.74485569679436,11.207624449748362 L 86.05675845125609,17.474341629929423 L 84.71184351728628,14.792699629142406 A 66.76249718405184 66.76249718405184 0 0 1 62.54470461466585,21.424643806490508"/><text text-anchor="middle" pointer-events="none" font-size="8px" fill="#000000" x="52.83634551319182" y="24.348923599816374" transform="rotate(180 52.83634551319182 21.348923599816374)" font-family="sans-serif">trek</text></g><g class="relationship" transform="translate(44.81005307583301 32.30773177009196) rotate(460.91001071422824)"><path class="outline" fill="#A5ABB6" stroke="none" d="M 25 0.5 L 40.23338327296877 0.5 L 40.23338327296877 -0.5 L 25 -0.5 Z M 59.56932077296877 0.5 L 74.80270404593755 0.5 L 74.80270404593755 3.5 L 81.80270404593755 0 L 74.80270404593755 -3.5 L 74.80270404593755 -0.5 L 59.56932077296877 -0.5 Z"/><text text-anchor="middle" pointer-events="none" font-size="8px" fill="#000000" x="49.90135202296877" y="3" transform="rotate(180 49.90135202296877 0)" font-family="sans-serif">trek</text></g><g class="relationship" transform="translate(24.59582485032375 137.1800473198649) rotate(392.2552109284288)"><path class="outline" fill="#A5ABB6" stroke="none" d="M 25 0.5 L 40.39024800957078 0.5 L 40.39024800957078 -0.5 L 25 -0.5 Z M 59.72618550957078 0.5 L 75.11643351914157 0.5 L 75.11643351914157 3.5 L 82.11643351914157 0 L 75.11643351914157 -3.5 L 75.11643351914157 -0.5 L 59.72618550957078 -0.5 Z"/><text text-anchor="middle" pointer-events="none" font-size="8px" fill="#000000" x="50.05821675957078" y="3" font-family="sans-serif">trek</text></g><g class="relationship" transform="translate(152.94032182037506 -0.8225652009570599) rotate(522.965331505726)"><path class="outline" fill="#A5ABB6" stroke="none" d="M 25 0.5 L 42.040076810009765 0.5 L 42.040076810009765 -0.5 L 25 -0.5 Z M 64.05179556000977 0.5 L 81.09187237001953 0.5 L 81.09187237001953 3.5 L 88.09187237001953 0 L 81.09187237001953 -3.5 L 81.09187237001953 -0.5 L 64.05179556000977 -0.5 Z"/><text text-anchor="middle" pointer-events="none" font-size="8px" fill="#000000" x="53.045936185009765" y="3" transform="rotate(180 53.045936185009765 0)" font-family="sans-serif">road</text></g><g class="relationship" transform="translate(152.94032182037506 -0.8225652009570599) rotate(522.965331505726)"><path class="outline" fill="#A5ABB6" stroke="none" d="M 21.40063509461097,-12.933012701892217 L 21.90063509461097,-12.06698729810778 A 65.76249718405184 65.76249718405184 0 0 1 23.534614081846875,-12.979613518870735 L 23.05946075065057,-13.859516531624443 A 66.76249718405184 66.76249718405184 0 0 0 21.40063509461097,-12.933012701892217 Z M 83.00149507663978,-15.620238217500514 L 82.57880849988986,-14.713962289410489 A 65.76249718405184 65.76249718405184 0 0 1 84.26353853929636,-13.898818962213399 L 82.91862360532656,-11.217176961426382 L 90.74485569679436,-11.207624449748362 L 86.05675845125609,-17.474341629929423 L 84.71184351728628,-14.792699629142406 A 66.76249718405184 66.76249718405184 0 0 0 83.00149507663978,-15.620238217500514"/><text text-anchor="middle" pointer-events="none" font-size="8px" fill="#000000" x="52.836345513191816" y="-18.348923599816374" transform="rotate(180 52.836345513191816 -21.348923599816374)" font-family="sans-serif">PublicTransport</text></g></g><g class="layer nodes"><g class="node" transform="translate(152.94032182037506,-0.8225652009570599)"><circle class="outline" cx="0" cy="0" r="25" fill="#F16667" stroke="#eb2728" stroke-width="2px"/><text text-anchor="middle" pointer-events="none" font-family="sans-serif" dy="1.5625" font-size="25" fill="#FFFFFF"/><text text-anchor="middle" pointer-events="none" x="0" y="5" font-size="10px" fill="#FFFFFF" font-family="sans-serif"> Darjeeling</text></g><g class="node" transform="translate(115.18197398645057,194.34716999145004)"><circle class="outline" cx="0" cy="0" r="25" fill="#D9C8AE" stroke="#c0a378" stroke-width="2px"/><text text-anchor="middle" pointer-events="none" font-family="sans-serif" dy="1.5625" font-size="25" fill="#2A2C34"/><text text-anchor="middle" pointer-events="none" x="0" y="5" font-size="10px" fill="#2A2C34" font-family="sans-serif"> Sandak…</text></g><g class="node" transform="translate(44.81005307583301,32.30773177009196)"><circle class="outline" cx="0" cy="0" r="25" fill="#F16667" stroke="#eb2728" stroke-width="2px"/><text text-anchor="middle" pointer-events="none" font-family="sans-serif" dy="1.5625" font-size="25" fill="#FFFFFF"/><text text-anchor="middle" pointer-events="none" x="0" y="5" font-size="10px" fill="#FFFFFF" font-family="sans-serif"> Rimbik</text></g><g class="node" transform="translate(24.59582485032375,137.1800473198649)"><circle class="outline" cx="0" cy="0" r="25" fill="#8DCC93" stroke="#5db665" stroke-width="2px"/><text text-anchor="middle" pointer-events="none" font-family="sans-serif" dy="1.5625" font-size="25" fill="#2A2C34"/><text text-anchor="middle" pointer-events="none" x="0" y="5" font-size="10px" fill="#2A2C34" font-family="sans-serif"> BhikeBh…</text></g></g></svg>