<svg xmlns="http://www.w3.org/2000/svg" width="548.2089233398438" height="277.2054138183594" viewBox="-95.43498229980469 -49.68042755126953 548.2089233398438 277.2054138183594"><title>Neo4j Graph Visualization</title><desc>Created using Neo4j (http://www.neo4j.com/)</desc><g class="layer relationships"><g class="relationship" transform="translate(225.72386881117052 -20.680426498622065) rotate(376.9416732123967)"><path class="outline" fill="#A5ABB6" stroke="none" d="M 25 0.5 L 82.79485491038797 0.5 L 82.79485491038797 -0.5 L 25 -0.5 Z M 117.24016741038797 0.5 L 175.03502232077594 0.5 L 175.03502232077594 3.5 L 182.03502232077594 0 L 175.03502232077594 -3.5 L 175.03502232077594 -0.5 L 117.24016741038797 -0.5 Z"/><text text-anchor="middle" pointer-events="none" font-size="8px" fill="#000000" x="100.01751116038797" y="3" font-family="sans-serif">ORIGIN</text></g><g class="relationship" transform="translate(225.72386881117052 -20.680426498622065) rotate(514.0190664238883)"><path class="outline" fill="#A5ABB6" stroke="none" d="M 25 0.5 L 43.13989726879652 0.5 L 43.13989726879652 -0.5 L 25 -0.5 Z M 102.32739726879652 0.5 L 120.46729453759303 0.5 L 120.46729453759303 3.5 L 127.46729453759303 0 L 120.46729453759303 -3.5 L 120.46729453759303 -0.5 L 102.32739726879652 -0.5 Z"/><text text-anchor="middle" pointer-events="none" font-size="8px" fill="#000000" x="72.73364726879652" y="3" transform="rotate(180 72.73364726879652 0)" font-family="sans-serif">DESTINATION</text></g><g class="relationship" transform="translate(-0.4132741814328682 102.71750389972473) rotate(327.5653843205078)"><path class="outline" fill="#A5ABB6" stroke="none" d="M 25 0.5 L 32.04854353628742 0.5 L 32.04854353628742 -0.5 L 25 -0.5 Z M 66.49385603628741 0.5 L 73.54239957257484 0.5 L 73.54239957257484 3.5 L 80.54239957257484 0 L 73.54239957257484 -3.5 L 73.54239957257484 -0.5 L 66.49385603628741 -0.5 Z"/><text text-anchor="middle" pointer-events="none" font-size="8px" fill="#000000" x="49.27119978628742" y="3" font-family="sans-serif">ORIGIN</text></g><g class="relationship" transform="translate(-0.4132741814328682 102.71750389972473) rotate(484.5710373439884)"><path class="outline" fill="#A5ABB6" stroke="none" d="M 25 0.5 L 25.082577296300407 0.5 L 25.082577296300407 -0.5 L 25 -0.5 Z M 84.2700772963004 0.5 L 84.35265459260081 0.5 L 84.35265459260081 3.5 L 91.35265459260081 0 L 84.35265459260081 -3.5 L 84.35265459260081 -0.5 L 84.2700772963004 -0.5 Z"/><text text-anchor="middle" pointer-events="none" font-size="8px" fill="#000000" x="54.67632729630041" y="3" transform="rotate(180 54.67632729630041 0)" font-family="sans-serif">DESTINATION</text></g></g><g class="layer nodes"><g class="node" transform="translate(423.77396311767717,39.64917330568633)"><circle class="outline" cx="0" cy="0" r="25" fill="#4C8EDA" stroke="#2870c2" stroke-width="2px"/><text text-anchor="middle" pointer-events="none" font-family="sans-serif" dy="1.5625" font-size="25" fill="#FFFFFF"/><text text-anchor="middle" pointer-events="none" x="0" y="5" font-size="10px" fill="#FFFFFF" font-family="sans-serif"> MSN</text></g><g class="node" transform="translate(-66.43497966729143,198.52499126623292)"><circle class="outline" cx="0" cy="0" r="25" fill="#4C8EDA" stroke="#2870c2" stroke-width="2px"/><text text-anchor="middle" pointer-events="none" font-family="sans-serif" dy="1.5625" font-size="25" fill="#FFFFFF"/><text text-anchor="middle" pointer-events="none" x="0" y="5" font-size="10px" fill="#FFFFFF" font-family="sans-serif"> GRR</text></g><g class="node" transform="translate(225.72386881117052,-20.680426498622065)"><circle class="outline" cx="0" cy="0" r="25" fill="#ECB5C9" stroke="#da7298" stroke-width="2px"/><text text-anchor="middle" pointer-events="none" font-family="sans-serif" dy="1.5625" font-size="25" fill="#2A2C34"/><text text-anchor="middle" pointer-events="none" x="0" y="5" font-size="10px" fill="#2A2C34" font-family="sans-serif"> 11/30/20…</text></g><g class="node" transform="translate(88.66493825223353,46.11123059755752)"><circle class="outline" cx="0" cy="0" r="25" fill="#4C8EDA" stroke="#2870c2" stroke-width="2px"/><text text-anchor="middle" pointer-events="none" font-family="sans-serif" dy="1.5625" font-size="25" fill="#FFFFFF"/><text text-anchor="middle" pointer-events="none" x="0" y="5" font-size="10px" fill="#FFFFFF" font-family="sans-serif"> ORD</text></g><g class="node" transform="translate(-0.4132741814328682,102.71750389972473)"><circle class="outline" cx="0" cy="0" r="25" fill="#ECB5C9" stroke="#da7298" stroke-width="2px"/><text text-anchor="middle" pointer-events="none" font-family="sans-serif" dy="1.5625" font-size="25" fill="#2A2C34"/><text text-anchor="middle" pointer-events="none" x="0" y="5" font-size="10px" fill="#2A2C34" font-family="sans-serif"> 11/17/20…</text></g></g></svg>